<?xml version="1.0" standalone="no"?><!DOCTYPE svg PUBLIC "-//W3C//DTD SVG 1.1//EN" "http://www.w3.org/Graphics/SVG/1.1/DTD/svg11.dtd"><svg t="1741227074209" class="icon" viewBox="0 0 1024 1024" version="1.1" xmlns="http://www.w3.org/2000/svg" p-id="10495" xmlns:xlink="http://www.w3.org/1999/xlink" width="200" height="200"><path d="M895.410424 9.619394a124.121212 124.121212 0 0 1 124.121212 124.121212v744.727273a124.121212 124.121212 0 0 1-124.121212 124.121212h-744.727272a124.121212 124.121212 0 0 1-124.121213-124.121212v-744.727273a124.121212 124.121212 0 0 1 124.121213-124.121212h744.727272zM676.150303 540.547879a824.35103 824.35103 0 0 1-17.873455 91.229091h-65.163636l21.224727-73.355637-26.437818-4.468363-29.416727 103.517091h92.346182c-26.065455 83.037091-65.908364 148.200727-120.273455 195.863272l13.777455 24.576c42.449455-34.629818 77.451636-81.175273 104.634182-140.008727 12.288 26.065455 32.768 50.269091 61.812363 72.610909-27.927273 18.245818-62.557091 35.002182-104.261818 50.269091l14.149818 24.948364c45.056-17.501091 83.037091-36.864 113.570909-58.461091 31.278545 20.48 70.749091 39.470545 118.411637 56.971636l13.777454-24.948363c-43.194182-14.894545-80.058182-31.278545-110.219636-49.152 30.533818-26.065455 50.641455-55.109818 60.695273-87.133091v-23.086546h-152.296728c5.213091-13.405091 9.681455-27.554909 14.149818-42.449454h181.341091v-25.693091h-174.266181a1047.893333 1047.893333 0 0 0 17.50109-87.877818l-27.182545-3.351273z m-201.448727 24.948363H184.630303v26.065455h67.770182v85.643636c0 3.723636-0.372364 8.192-0.372364 13.032728h-87.505454v25.693091h86.016c-2.978909 29.789091-8.192 55.109818-16.011637 76.706909-11.915636 28.299636-33.140364 51.013818-63.301818 68.142545l14.522182 23.086546c32.768-17.128727 56.226909-41.332364 70.376727-72.61091 11.170909-25.320727 18.245818-56.971636 21.597091-95.32509h107.613091v164.95709h27.182545v-164.95709h81.547637v-25.693091h-81.547637v-98.676364h62.184728v-26.065455zM789.721212 724.557576c-10.426182 25.320727-29.416727 48.779636-56.971636 70.376727-29.789091-21.597091-51.013818-45.056-63.674182-70.376727h120.645818z m-404.386909-132.933818v98.676363H279.58303c0-4.096 0.372364-8.564364 0.372364-13.032727v-85.643636h105.378909z m380.555636-48.03491l-17.873454 17.501091c27.927273 22.341818 49.896727 43.194182 65.536 62.929455l18.990545-18.990546a452.049455 452.049455 0 0 0-66.653091-61.44z m-442.368-332.024242H188.353939v239.429818h26.065455v-81.547636h83.037091v34.629818c0 12.288-4.840727 18.618182-14.522182 18.618182l-27.927273-1.117091 7.074909 26.437818h29.416728c21.224727 0 32.023273-12.660364 32.023272-37.981091V211.533576z m545.885091 24.203636H657.532121v24.576h87.505455c-2.234182 12.288-5.957818 24.203636-10.426182 35.74691h-66.280727v152.66909h24.203636V319.922424h32.768v123.252364h22.714182V319.922424h30.161454v122.88h22.714182v-122.88h33.512727v95.697455c0 6.702545-2.606545 10.053818-7.447272 10.053818l-15.266909-1.117091 6.330181 24.203636h17.128728c15.639273 0 23.458909-9.309091 23.458909-27.927272v-124.741818h-97.931637a233.037576 233.037576 0 0 0 10.798546-35.74691h97.931636v-24.576zM469.488485 201.107394h-26.810182v204.8c0 11.170909-5.213091 17.128727-15.639273 17.128727-14.894545 0-30.161455-0.744727-45.800727-1.861818l5.585455 25.693091h49.524363c21.969455 0 33.140364-11.543273 33.140364-34.257455V201.107394z m144.849454 12.288a1812.883394 1812.883394 0 0 1-19.362909 172.776727 599.815758 599.815758 0 0 1-64.418909 14.522182l6.702546 26.437818c39.842909-8.936727 77.079273-19.735273 111.336727-33.140363v-25.693091c-9.681455 3.723636-20.107636 7.074909-30.533818 10.798545 8.936727-49.896727 16.011636-103.889455 20.48-162.350545l-24.203637-3.351273z m-223.045818 15.639273h-26.065454v160.488727h26.065454V229.034667z m170.542546-10.798546l-21.969455 7.074909c8.564364 46.545455 15.639273 94.952727 21.224727 145.221818l21.969455-5.585454a2220.528485 2220.528485 0 0 0-21.224727-146.711273zM297.456485 303.166061v42.449454H214.419394V303.166061h83.037091z m0-66.653091v42.821818H214.419394v-42.821818h83.037091zM774.826667 109.53697h-26.065455v71.493818h-49.524364V124.028121h-25.69309V204.489697h177.24509V124.028121h-25.320727v56.971637H774.826667V109.53697z m-185.064728 3.723636l-26.810181 4.468364c6.330182 16.011636 11.915636 33.885091 17.128727 53.248h-48.779637v25.320727h117.66691V170.97697H605.401212a938.480485 938.480485 0 0 0-15.639273-57.716364z m-195.490909-7.074909c-8.192 17.128727-17.873455 33.512727-28.672 49.152h-72.610909a540.361697 540.361697 0 0 0-24.576-46.917818l-28.299636 4.840727c8.936727 12.660364 16.756364 26.437818 24.203636 42.077091H162.288485v26.065455h333.265454v-26.065455h-100.538181c8.936727-11.915636 17.501091-25.320727 25.320727-40.215273l-26.065455-8.936727z" fill="#65B60F" p-id="10496"></path></svg>